<svg xmlns="http://www.w3.org/2000/svg" xmlns:xlink="http://www.w3.org/1999/xlink" xmlns:serif="http://www.serif.com/" width="100%" height="100%" viewBox="0 0 844 797" version="1.1" xml:space="preserve" style="fill-rule:evenodd;clip-rule:evenodd;stroke-linejoin:round;stroke-miterlimit:2;">
    <g transform="matrix(1,0,0,1,-747.956,-60.4163)">
        <g transform="matrix(1,0,0,1,119.645,151.801)">
            <path d="M1471.9,541.49C1471.9,476.556 1419.26,423.916 1354.32,423.916L770.342,423.916C733.779,423.916 698.883,439.215 674.109,466.107C649.335,492.998 636.944,529.029 639.936,565.47C639.936,565.471 639.936,565.472 639.936,565.472C644.345,619.148 690.106,659.916 743.932,658.12C870.28,653.905 1076.37,647.029 1076.37,647.029C1076.37,647.029 1200.46,665.38 1309.63,681.525C1350.35,687.546 1391.67,675.549 1422.83,648.659C1453.98,621.769 1471.9,582.649 1471.9,541.491L1471.9,541.49Z" style="fill:url(#_Linear1);"/>
        </g>
        <g transform="matrix(0.482355,0,0,0.453325,680.373,171.779)">
            <path d="M1280.47,583.588C1280.47,513.641 1253.45,446.77 1205.74,398.654C1158.02,350.537 1093.82,325.406 1028.18,329.154C965.74,332.545 905.25,337.194 850.51,345.592C714.985,366.793 611.906,486.043 603.362,631.513C603.27,631.507 603.27,631.507 603.27,631.507L1280.47,583.589L1280.47,583.588Z" style="fill:rgb(4,0,0);"/>
        </g>
        <g transform="matrix(0.778559,0,0,0.782645,458.342,141.64)">
            <path d="M1060.83,297.126L1000.76,280.111L816.115,280.111L763.823,301.244L663.478,583.589C803.874,658.02 907.314,675.287 1149.05,597.258L1178.38,554.959L1144.97,518.678L1186.54,466.46L1060.83,297.126Z" style="fill:url(#_Linear2);"/>
            <clipPath id="_clip3">
                <path d="M1060.83,297.126L1000.76,280.111L816.115,280.111L763.823,301.244L663.478,583.589C803.874,658.02 907.314,675.287 1149.05,597.258L1178.38,554.959L1144.97,518.678L1186.54,466.46L1060.83,297.126Z"/>
            </clipPath>
            <g clip-path="url(#_clip3)">
                <g transform="matrix(0.478793,0,0,0.608815,475.296,47.954)">
                    <path d="M1189.06,326.93L668.934,326.93C668.934,326.93 667.408,341.623 665.174,363.118C654.738,463.542 726.44,558.187 844.054,599.239C892.463,616.135 930.75,629.499 930.75,629.499C930.75,629.499 960.558,620.309 1001.99,607.535C1144.93,563.466 1224.67,443.855 1189.06,326.931C1189.06,326.931 1189.06,326.93 1189.06,326.93Z" style="fill:rgb(162,74,43);"/>
                </g>
            </g>
        </g>
        <g transform="matrix(1,0,0,1,122.085,50.8687)">
            <g transform="matrix(-0.194145,-0.0418022,-0.241135,1.11992,1569.44,27.7935)">
                <path d="M1688.2,328.717C1688.2,328.717 1681.74,328.723 1670.42,328.733C1426.9,328.948 1205.53,353.282 1100.56,391.376C914.17,458.733 752.637,516.265 691.571,573.348C684.212,580.227 764.525,590.955 756.86,597.807L1280.47,583.589C1280.47,583.589 1305.16,519.136 1315.36,492.492C1318.19,485.113 1333.58,478.045 1359.58,472.182C1436.53,454.834 1597.95,418.44 1597.95,418.44L1688.2,328.717Z" style="fill:url(#_Linear4);"/>
            </g>
            <g transform="matrix(0.159951,-0.117708,-0.918598,-1.24826,1409.53,1189.19)">
                <path d="M1204.12,339.462C1192.85,329.042 1146.46,319.781 1077.22,314.129C1019.98,309.463 964.013,308.144 907.104,309.002C817.28,310.377 737.665,317.063 691.987,327.069C646.309,337.074 639.842,349.244 674.514,359.95C903.529,430.385 1045.65,480.789 1235.45,547.369L1493.65,547.223C1372.42,467.988 1291.94,421.554 1204.12,339.462Z" style="fill:url(#_Linear5);"/>
            </g>
        </g>
        <g transform="matrix(-1,0,0,1,2274.82,8.95928)">
            <path d="M1007.75,372.523C1007.75,372.523 1021.21,389.949 1030.55,402.043C1032.67,404.78 1035.92,406.394 1039.38,406.422C1042.84,406.45 1046.12,404.889 1048.27,402.187C1048.27,402.186 1048.27,402.186 1048.27,402.186L1007.75,372.523Z" style="fill:rgb(255,241,167);"/>
        </g>
        <g transform="matrix(1,0,0,1,122.085,50.8687)">
            <g transform="matrix(0.194145,-0.0418022,0.241135,1.11992,531.297,27.7935)">
                <path d="M1654.23,327.449C1654.23,327.449 1605.49,328.83 1540.17,330.681C1330.81,336.613 1152.36,360.275 1064.52,393.75C885.589,461.557 754.905,514.146 691.571,573.348C684.212,580.227 764.525,590.955 756.86,597.807L1280.47,583.589C1280.47,583.589 1274.37,520.267 1271.26,487.88C1270.09,475.771 1290.43,463.893 1329.52,453.855C1396.06,436.767 1494.1,411.589 1494.1,411.589L1654.23,327.449Z" style="fill:url(#_Linear6);"/>
            </g>
            <g transform="matrix(-0.159951,-0.117708,0.918598,-1.24826,691.211,1189.19)">
                <path d="M1207.41,339.396C1194.19,329.062 1147.41,319.929 1078.69,314.262C1014.6,308.961 952.092,307.88 888.092,309.368C699.565,313.773 574.055,336.839 606.976,361.03C695.55,425.254 853.57,471.936 887.463,545.514L1282.6,548.067C1242.92,463.197 1310.8,420.412 1207.41,339.396Z" style="fill:url(#_Linear7);"/>
            </g>
            <path d="M989.511,355.275C989.511,355.275 1015.18,385.225 1029.66,402.125C1032.2,405.089 1035.83,406.905 1039.73,407.16C1043.63,407.415 1047.46,406.089 1050.37,403.481C1050.37,403.48 1050.37,403.48 1050.37,403.48L989.511,355.275Z" style="fill:rgb(255,241,167);"/>
        </g>
        <g transform="matrix(1.07648,0.288442,-0.289744,1.08134,257.162,-217.542)">
            <path d="M913.318,28.773C901.574,22.811 887.58,23.258 876.245,29.958C865.224,36.473 853.282,43.532 853.282,43.532L817.508,43.532C807.081,43.532 797.573,49.468 793.032,58.812C790.792,63.421 788.915,67.283 788.915,67.283C788.915,67.283 784.763,70.168 779.807,73.611C769.992,80.431 765.648,92.729 769.016,104.163C771.673,113.184 774.269,121.997 774.269,121.997C774.269,121.997 768.607,127.362 762.504,133.144C753.764,141.426 751.809,154.567 757.763,165.015C760.819,170.377 763.38,174.871 763.38,174.871C763.38,174.871 760.819,178.832 757.763,183.559C751.718,192.912 752.386,205.072 759.421,213.711C765.01,220.576 770.483,227.298 770.483,227.298L770.483,227.299C770.483,234.832 774.633,241.759 781.291,245.338C787.948,248.918 796.042,248.575 802.37,244.445C815.486,235.884 827.665,227.935 827.665,227.935L846.227,231.66L907.443,260.14C933.696,275.5 959.405,273.654 984.745,260.14L977.23,232.219C977.23,232.219 987.43,193.477 989.353,186.174C989.56,185.388 989.796,184.609 990.06,183.84C991.01,181.073 993.34,174.289 993.34,174.289C993.34,174.289 1004.61,162.16 1011.88,154.333C1015.63,150.3 1017.03,144.634 1015.61,139.327C1014.21,134.148 1012.7,128.527 1012.7,128.527C1012.7,128.527 1012.9,128.361 1013.26,128.064C1023.88,119.281 1027.71,104.74 1022.78,91.9C1022.78,91.899 1022.78,91.898 1022.78,91.898C1017.09,77.074 1002.8,67.283 986.858,67.283L971.054,67.283C971.054,67.283 969.257,61.885 967.112,55.442C962.866,42.691 950.89,34.082 937.396,34.082C930.062,34.082 923.776,34.082 923.776,34.082C923.776,34.082 919.008,31.662 913.318,28.773Z" style="fill:url(#_Linear8);"/>
            <clipPath id="_clip9">
                <path d="M913.318,28.773C901.574,22.811 887.58,23.258 876.245,29.958C865.224,36.473 853.282,43.532 853.282,43.532L817.508,43.532C807.081,43.532 797.573,49.468 793.032,58.812C790.792,63.421 788.915,67.283 788.915,67.283C788.915,67.283 784.763,70.168 779.807,73.611C769.992,80.431 765.648,92.729 769.016,104.163C771.673,113.184 774.269,121.997 774.269,121.997C774.269,121.997 768.607,127.362 762.504,133.144C753.764,141.426 751.809,154.567 757.763,165.015C760.819,170.377 763.38,174.871 763.38,174.871C763.38,174.871 760.819,178.832 757.763,183.559C751.718,192.912 752.386,205.072 759.421,213.711C765.01,220.576 770.483,227.298 770.483,227.298L770.483,227.299C770.483,234.832 774.633,241.759 781.291,245.338C787.948,248.918 796.042,248.575 802.37,244.445C815.486,235.884 827.665,227.935 827.665,227.935L846.227,231.66L907.443,260.14C933.696,275.5 959.405,273.654 984.745,260.14L977.23,232.219C977.23,232.219 987.43,193.477 989.353,186.174C989.56,185.388 989.796,184.609 990.06,183.84C991.01,181.073 993.34,174.289 993.34,174.289C993.34,174.289 1004.61,162.16 1011.88,154.333C1015.63,150.3 1017.03,144.634 1015.61,139.327C1014.21,134.148 1012.7,128.527 1012.7,128.527C1012.7,128.527 1012.9,128.361 1013.26,128.064C1023.88,119.281 1027.71,104.74 1022.78,91.9C1022.78,91.899 1022.78,91.898 1022.78,91.898C1017.09,77.074 1002.8,67.283 986.858,67.283L971.054,67.283C971.054,67.283 969.257,61.885 967.112,55.442C962.866,42.691 950.89,34.082 937.396,34.082C930.062,34.082 923.776,34.082 923.776,34.082C923.776,34.082 919.008,31.662 913.318,28.773Z"/>
            </clipPath>
            <g clip-path="url(#_clip9)">
                <g transform="matrix(1,2.77556e-17,1.66533e-16,1,12.0762,30.5066)">
                    <path d="M913.318,28.773C901.574,22.811 887.58,23.258 876.245,29.958C865.224,36.473 853.282,43.532 853.282,43.532L817.508,43.532C807.081,43.532 797.573,49.468 793.032,58.812C790.792,63.421 788.915,67.283 788.915,67.283C788.915,67.283 784.763,70.168 779.807,73.611C769.992,80.431 765.648,92.729 769.016,104.163C771.673,113.184 774.269,121.997 774.269,121.997C774.269,121.997 768.607,127.362 762.504,133.144C753.764,141.426 751.809,154.567 757.763,165.015C760.819,170.377 763.38,174.871 763.38,174.871C763.38,174.871 760.819,178.832 757.763,183.559C751.718,192.912 752.386,205.072 759.421,213.711C765.01,220.576 770.483,227.298 770.483,227.298L770.483,227.299C770.483,234.832 774.633,241.759 781.291,245.338C787.948,248.918 796.042,248.575 802.37,244.445C815.486,235.884 827.665,227.935 827.665,227.935L846.227,231.66L907.443,260.14C933.696,275.5 959.405,273.654 984.745,260.14L977.23,232.219C977.23,232.219 987.43,193.477 989.353,186.174C989.56,185.388 989.796,184.609 990.06,183.84C991.01,181.073 993.34,174.289 993.34,174.289C993.34,174.289 1004.61,162.16 1011.88,154.333C1015.63,150.3 1017.03,144.634 1015.61,139.327C1014.21,134.148 1012.7,128.527 1012.7,128.527C1012.7,128.527 1012.9,128.361 1013.26,128.064C1023.88,119.281 1027.71,104.74 1022.78,91.9C1022.78,91.899 1022.78,91.898 1022.78,91.898C1017.09,77.074 1002.8,67.283 986.858,67.283L971.054,67.283C971.054,67.283 969.257,61.885 967.112,55.442C962.866,42.691 950.89,34.082 937.396,34.082L923.776,34.082C923.776,34.082 919.008,31.662 913.318,28.773Z" style="fill:url(#_Linear10);"/>
                </g>
                <g transform="matrix(1,2.77556e-17,3.33067e-16,1,-1.04359,-3.87724)">
                    <path d="M913.318,28.773C901.574,22.811 887.58,23.258 876.245,29.958C865.224,36.473 853.282,43.532 853.282,43.532L817.508,43.532C807.081,43.532 797.573,49.468 793.032,58.812C790.792,63.421 788.915,67.283 788.915,67.283C788.915,67.283 784.763,70.168 779.807,73.611C769.992,80.431 765.648,92.729 769.016,104.163C771.673,113.184 774.269,121.997 774.269,121.997C774.269,121.997 768.607,127.362 762.504,133.144C753.764,141.426 751.809,154.567 757.763,165.015C760.819,170.377 763.38,174.871 763.38,174.871C763.38,174.871 760.819,178.832 757.763,183.559C751.718,192.912 752.386,205.072 759.421,213.711C765.01,220.576 770.483,227.298 770.483,227.298L770.483,227.299C770.483,234.832 774.633,241.759 781.291,245.338C787.948,248.918 796.042,248.575 802.37,244.445C815.486,235.884 827.665,227.935 827.665,227.935L846.227,231.66L907.443,260.14C933.696,275.5 959.405,273.654 984.745,260.14L977.23,232.219C977.23,232.219 987.43,193.477 989.353,186.174C989.56,185.388 989.796,184.609 990.06,183.84C991.01,181.073 993.34,174.289 993.34,174.289C993.34,174.289 1004.61,162.16 1011.88,154.333C1015.63,150.3 1017.03,144.634 1015.61,139.327C1014.21,134.148 1012.7,128.527 1012.7,128.527C1012.7,128.527 1012.9,128.361 1013.26,128.064C1023.88,119.281 1027.71,104.74 1022.78,91.9C1022.78,91.899 1022.78,91.898 1022.78,91.898C1017.09,77.074 1002.8,67.283 986.858,67.283L971.054,67.283C971.054,67.283 969.257,61.885 967.112,55.442C962.866,42.691 950.89,34.082 937.396,34.082L923.776,34.082C923.776,34.082 919.008,31.662 913.318,28.773Z" style="fill:url(#_Linear11);"/>
                </g>
                <g transform="matrix(1,2.77556e-17,3.33067e-16,1,12.0762,30.5066)">
                    <path d="M913.318,28.773C901.574,22.811 887.58,23.258 876.245,29.958C865.224,36.473 853.282,43.532 853.282,43.532L817.508,43.532C807.081,43.532 797.573,49.468 793.032,58.812C790.792,63.421 788.915,67.283 788.915,67.283C788.915,67.283 784.763,70.168 779.807,73.611C769.992,80.431 765.648,92.729 769.016,104.163C771.673,113.184 774.269,121.997 774.269,121.997C774.269,121.997 768.607,127.362 762.504,133.144C753.764,141.426 751.809,154.567 757.763,165.015C760.819,170.377 763.38,174.871 763.38,174.871C763.38,174.871 760.819,178.832 757.763,183.559C751.718,192.912 752.386,205.072 759.421,213.711C765.01,220.576 770.483,227.298 770.483,227.298L770.483,227.299C770.483,234.832 774.633,241.759 781.291,245.338C787.948,248.918 796.042,248.575 802.37,244.445C815.486,235.884 827.665,227.935 827.665,227.935L846.227,231.66L907.443,260.14C933.696,275.5 959.405,273.654 984.745,260.14L977.23,232.219C977.23,232.219 987.43,193.477 989.353,186.174C989.56,185.388 989.796,184.609 990.06,183.84C991.01,181.073 993.34,174.289 993.34,174.289C993.34,174.289 1004.61,162.16 1011.88,154.333C1015.63,150.3 1017.03,144.634 1015.61,139.327C1014.21,134.148 1012.7,128.527 1012.7,128.527C1012.7,128.527 1012.9,128.361 1013.26,128.064C1023.88,119.281 1027.71,104.74 1022.78,91.9C1022.78,91.899 1022.78,91.898 1022.78,91.898C1017.09,77.074 1002.8,67.283 986.858,67.283L971.054,67.283C971.054,67.283 969.257,61.885 967.112,55.442C962.866,42.691 950.89,34.082 937.396,34.082L923.776,34.082C923.776,34.082 919.008,31.662 913.318,28.773Z" style="fill:url(#_Linear12);"/>
                </g>
                <g transform="matrix(0.658088,1.82656e-17,3.20005e-16,0.658088,315.365,83.4051)">
                    <path d="M923.119,33.749C905.274,24.689 884.009,25.369 866.785,35.55C859.328,39.958 853.282,43.532 853.282,43.532L826.367,43.532C810.523,43.532 796.074,52.552 789.174,66.751C789.007,67.094 788.915,67.283 788.915,67.283C788.915,67.283 788.712,67.424 788.342,67.681C773.428,78.044 766.827,96.731 771.944,114.106C773.302,118.715 774.269,121.997 774.269,121.997C774.269,121.997 772.659,123.522 770.231,125.823C756.95,138.407 753.98,158.376 763.027,174.251C763.255,174.651 763.38,174.871 763.38,174.871C763.38,174.871 763.255,175.064 763.027,175.416C753.84,189.628 754.856,208.105 765.546,221.234C768.426,224.771 770.483,227.298 770.483,227.298L770.483,227.3C770.483,234.833 774.633,241.759 781.29,245.339C787.948,248.919 796.041,248.576 802.369,244.445C815.486,235.884 827.665,227.935 827.665,227.935L846.227,231.66L907.443,260.14C933.696,275.5 959.405,273.654 984.745,260.14L977.23,232.219C977.23,232.219 986.921,195.411 989.192,186.787C989.506,185.592 989.865,184.409 990.266,183.241C991.308,180.205 993.34,174.289 993.34,174.289C993.34,174.289 1001.77,165.215 1008.75,157.7C1014.45,151.571 1016.59,142.962 1014.41,134.898C1013.47,131.382 1012.7,128.527 1012.7,128.527C1012.7,128.527 1015.59,126.138 1019.07,123.257C1026.22,117.348 1028.8,107.566 1025.48,98.927C1025.48,98.926 1025.48,98.925 1025.48,98.925C1018.16,79.869 999.793,67.283 979.301,67.283C974.443,67.283 971.054,67.283 971.054,67.283C971.054,67.283 970.966,67.019 970.806,66.539C964.355,47.163 946.158,34.082 925.652,34.082C924.465,34.082 923.776,34.082 923.776,34.082C923.776,34.082 923.543,33.964 923.119,33.749Z" style="fill:url(#_Linear13);"/>
                </g>
            </g>
        </g>
        <g transform="matrix(0.878822,0.655246,-0.491289,1.57314,512.817,-895.395)">
            <ellipse cx="881.831" cy="418.704" rx="16.791" ry="16.277" style="fill:rgb(255,163,101);"/>
            <clipPath id="_clip14">
                <ellipse cx="881.831" cy="418.704" rx="16.791" ry="16.277"/>
            </clipPath>
            <g clip-path="url(#_clip14)">
                <g transform="matrix(1.05826,0,-4.37098e-17,0.93934,-53.2716,22.5734)">
                    <ellipse cx="881.831" cy="418.704" rx="16.791" ry="16.277" style="fill:rgb(255,129,0);"/>
                </g>
                <g transform="matrix(1.05826,0,-4.37098e-17,0.93934,-58.1374,17.0765)">
                    <ellipse cx="881.831" cy="418.704" rx="16.791" ry="16.277" style="fill:rgb(255,159,60);"/>
                </g>
                <g transform="matrix(1.05826,0,-4.37098e-17,0.93934,-61.1838,13.1466)">
                    <ellipse cx="881.831" cy="418.704" rx="16.791" ry="16.277" style="fill:rgb(255,186,115);"/>
                </g>
            </g>
        </g>
        <g transform="matrix(0.0335811,-0.0581641,0.278022,0.160516,1075.18,315.468)">
            <path d="M2024.57,485.533L2067.32,423.347L1474.08,506.07L115.452,448.231L-80.045,564.437L530.25,620.071L1214.5,617.582L1355.77,587.498L1721.55,533.551L2024.57,485.533Z" style="fill:url(#_Linear15);"/>
        </g>
        <g transform="matrix(1,0,0,1,122.085,50.8687)">
            <path d="M969.559,245.178L969.558,245.178C961.291,245.178 954.588,251.88 954.588,260.148C954.588,269.409 954.588,279.543 954.588,279.543L969.559,279.543L969.559,245.178Z" style="fill:url(#_Linear16);"/>
        </g>
        <g transform="matrix(-0.0635653,-0.0216842,-0.103649,0.30384,1256.95,276.432)">
            <path d="M2341.36,310.23L2327.32,274.599L1485.27,390.826L336.126,406.949L649.738,598.99C956.84,587.345 1109.93,562.615 1413.25,528.533L1495.85,506.366L1820.89,475.678L2341.36,310.23Z" style="fill:url(#_Linear17);"/>
        </g>
        <g transform="matrix(0.327528,0,0,0.769223,864.145,-57.0407)">
            <path d="M1233.04,449.138C1237.81,414.684 1209,380.917 1153.4,355.803C1097.79,330.689 1020.32,316.453 939.264,316.453C926.644,316.453 914.051,316.453 901.574,316.453C778.82,316.453 678.182,357.901 674.098,410.14C674.097,410.14 674.097,410.141 674.097,410.141C650.466,430.099 656.732,453.484 674.097,478.142C674.097,478.142 675.155,480.148 676.791,483.253C688.686,505.824 708.33,527.525 735.089,547.656C740.427,551.672 745.836,555.74 750.996,559.623C771.728,575.219 801.083,588.427 836.514,598.1C855.578,603.305 876.223,608.941 892.177,613.297C910.146,618.203 931.043,620.81 952.388,620.81L952.389,620.81C978.021,620.81 1003,617.357 1023.74,610.944C1047.92,603.467 1080.03,593.542 1098.38,587.866C1108.03,584.883 1116.69,581.36 1124.13,577.393C1124.13,577.393 1124.13,577.393 1124.14,577.393C1188.16,543.265 1225.77,501.53 1231.82,457.928C1232.22,455.038 1232.63,452.105 1233.04,449.138Z" style="fill:url(#_Linear18);"/>
            <clipPath id="_clip19">
                <path d="M1233.04,449.138C1237.81,414.684 1209,380.917 1153.4,355.803C1097.79,330.689 1020.32,316.453 939.264,316.453C926.644,316.453 914.051,316.453 901.574,316.453C778.82,316.453 678.182,357.901 674.098,410.14C674.097,410.14 674.097,410.141 674.097,410.141C650.466,430.099 656.732,453.484 674.097,478.142C674.097,478.142 675.155,480.148 676.791,483.253C688.686,505.824 708.33,527.525 735.089,547.656C740.427,551.672 745.836,555.74 750.996,559.623C771.728,575.219 801.083,588.427 836.514,598.1C855.578,603.305 876.223,608.941 892.177,613.297C910.146,618.203 931.043,620.81 952.388,620.81L952.389,620.81C978.021,620.81 1003,617.357 1023.74,610.944C1047.92,603.467 1080.03,593.542 1098.38,587.866C1108.03,584.883 1116.69,581.36 1124.13,577.393C1124.13,577.393 1124.13,577.393 1124.14,577.393C1188.16,543.265 1225.77,501.53 1231.82,457.928C1232.22,455.038 1232.63,452.105 1233.04,449.138Z"/>
            </clipPath>
            <g clip-path="url(#_clip19)">
                <g transform="matrix(3.05318,0,0,1.30001,-2265.64,157.018)">
                    <path d="M1060.68,226.241C1082.56,210.95 1101.22,215.487 1122.05,218.092L1119.88,224.069C1092.79,217.223 1068.09,223.097 1060.68,227.046L1060.68,226.241Z"/>
                </g>
                <g transform="matrix(-3.05318,0,0,1.30001,4139.38,157.018)">
                    <path d="M1060.68,226.241C1082.56,210.95 1091.57,215.487 1112.4,218.092L1110.24,224.069C1083.14,217.223 1068.09,223.097 1060.68,227.046L1060.68,226.241Z"/>
                </g>
                <g transform="matrix(-2.32278,0,0,1.21087,3383.07,169.601)">
                    <path d="M1071.82,253.158C1085.39,243.957 1103.98,241.52 1120.5,249.014L1135.58,247.027L1122.83,254.81C1102.81,246.04 1088.22,248.895 1071.82,253.158Z" style="fill:rgb(81,17,22);"/>
                </g>
                <g transform="matrix(2.32278,0,0,1.21087,-1490.29,169.601)">
                    <path d="M1071.82,253.158C1085.39,243.957 1103.98,241.52 1120.5,249.014L1135.58,247.027L1122.83,254.81C1102.81,246.04 1088.22,248.895 1071.82,253.158Z" style="fill:rgb(81,17,22);"/>
                </g>
                <g transform="matrix(3.05318,0,0,1.30001,-2254.09,140.283)">
                    <path d="M1043.52,266.017L1039.86,292.007C1033.78,292.022 1033.93,295.519 1033.48,297.862C1033.48,297.862 1036.08,298.139 1038.2,298.364C1039.93,298.547 1041.53,299.323 1042.75,300.56C1042.75,300.561 1042.75,300.561 1042.75,300.561C1044.72,302.567 1047.82,302.924 1050.2,301.419C1050.88,300.987 1051.57,300.551 1052.19,300.157C1053.77,299.156 1055.49,298.391 1057.29,297.888C1059.46,297.28 1062.15,296.53 1062.15,296.53C1062.15,296.53 1062.15,296.53 1062.15,296.53C1055.35,294.342 1050.46,288.379 1049.65,281.284C1049.07,275.981 1046.57,270.958 1043.52,266.017Z" style="fill:rgb(169,79,49);"/>
                </g>
                <g transform="matrix(3.05318,0,0,1.30001,-2265.64,140.283)">
                    <path d="M1047.05,267.555L1046.08,292.21C1040.13,293.008 1036.79,294.591 1035.87,298.925C1034.15,295.337 1037.34,291.948 1041.53,289.185L1047.05,267.555Z" style="fill:rgb(17,17,17);"/>
                </g>
                <g transform="matrix(3.05318,0,0,-1.30001,-2270.67,995.441)">
                    <path d="M1026.18,331.676C1037.53,321.738 1043.06,316.709 1050.33,318.445L1058.1,318.445C1061.13,318.444 1064.09,319.41 1066.54,321.202C1070.59,324.219 1075.36,329.621 1083.62,337.207L1051.94,331.676L1026.18,331.676Z" style="fill:url(#_Linear20);"/>
                </g>
                <g transform="matrix(3.05318,0,0,1.30001,-2270.67,149.975)">
                    <path d="M1026.07,318.677L1049.62,311.035L1052.11,313.04L1056.45,311.035C1065.76,313.375 1075.05,315.556 1083.62,313.04C1076.24,317.779 1063.35,320.699 1051.43,321.284L1026.07,318.677Z" style="fill:rgb(133,23,31);"/>
                </g>
                <g transform="matrix(3.05318,0,0,1.30001,-2473.88,58.8768)">
                    <path d="M1053.2,259.889L985.592,259.889L985.592,355.973L1124.63,443.72C1061.86,395.041 1036.2,331.968 1053.2,259.889Z" style="fill:rgb(167,78,48);"/>
                </g>
                <g transform="matrix(3.05318,0,0,1.30001,-2525.89,36.7309)">
                    <path d="M1072.15,255.652L985.592,259.889L985.592,355.973L1059.97,390.275C1053.5,349.055 1057.47,366.145 1064.54,322.625C1068.66,297.277 1065.54,283.67 1072.15,255.652Z" style="fill:rgb(56,23,0);"/>
                </g>
                <g transform="matrix(-3.05318,0,0,1.30001,4430.37,28.783)">
                    <path d="M1072.15,255.652L985.592,259.889L985.592,355.973L1059.97,390.275C1053.5,349.055 1048.41,369.397 1055.49,325.877C1059.61,300.529 1065.54,283.67 1072.15,255.652Z" style="fill:rgb(56,23,0);"/>
                </g>
                <g transform="matrix(3.05318,0,0,1.30001,-2265.64,140.283)">
                    <path d="M1053.39,301.63C1057.8,299.207 1062.03,297.536 1065.93,298.835L1064.62,300.165L1070.2,297.692L1064.62,290.017C1059.32,292.366 1054.79,295.893 1053.39,301.63Z" style="fill:rgb(20,6,0);"/>
                </g>
                <g transform="matrix(-3.05318,0,0,1.30001,4153.58,141.589)">
                    <path d="M1053.39,301.117C1057.8,298.694 1062.03,297.536 1065.93,298.835L1064.62,300.165C1064.62,300.165 1064.62,300.165 1064.62,300.165C1065.87,299.61 1066.77,298.469 1067.01,297.12C1067.25,295.771 1066.81,294.391 1065.82,293.435C1064.38,292.034 1063.14,290.828 1063.14,290.828C1057.85,293.177 1054.79,295.379 1053.39,301.117Z" style="fill:rgb(20,6,0);"/>
                </g>
            </g>
        </g>
        <g transform="matrix(1,0,0,1,122.085,50.8687)">
            <path d="M1105.76,271.977C1105.76,270.432 1104.5,269.177 1102.96,269.177C1095.81,266.376 1088.39,265.575 1080.39,269.177C1078.85,269.177 1077.59,270.432 1077.59,271.977L1077.59,277.578C1077.59,279.123 1078.85,280.378 1080.39,280.378C1088.57,277.327 1096.06,277.455 1102.96,280.378C1104.5,280.378 1105.76,279.123 1105.76,277.578L1105.76,271.977Z" style="fill:rgb(167,78,48);"/>
        </g>
        <g transform="matrix(1,0,0,1,41.9152,50.8687)">
            <path d="M1105.76,271.977C1105.76,270.432 1104.5,269.177 1102.96,269.177C1095.81,266.376 1088.39,265.575 1080.39,269.177C1078.85,269.177 1077.59,270.432 1077.59,271.977L1077.59,277.578C1077.59,279.123 1078.85,280.378 1080.39,280.378C1088.57,277.327 1096.06,277.455 1102.96,280.378C1104.5,280.378 1105.76,279.123 1105.76,277.578L1105.76,271.977Z" style="fill:rgb(167,78,48);"/>
        </g>
        <g transform="matrix(1,0,0,1,128.619,63.8002)">
            <path d="M1046.53,160.519C1052.82,203.228 1098.34,222.124 1146.13,239.642C1152.76,205.817 1131.33,182.114 1111.13,159.115L1046.53,160.519Z" style="fill:url(#_Linear21);"/>
        </g>
        <g transform="matrix(0.443107,0,0,0.832499,683.513,92.4718)">
            <path d="M1046.53,160.519C1052.82,203.228 1098.34,222.124 1146.13,239.642C1152.76,205.817 1140.32,179.688 1120.12,156.689L1046.53,160.519Z" style="fill:url(#_Linear22);"/>
        </g>
        <g transform="matrix(1.00151,0,0,1.672,120.36,-62.5526)">
            <path d="M1142.84,190.347C1140.63,165.377 1106.19,145.808 1064.44,145.808L1045.48,145.808C998.421,145.808 960.271,168.66 960.271,196.849L960.271,197.499C1019.34,169.912 1074.21,166.353 1125.67,183.48C1132.84,185.865 1135.76,187.435 1142.84,190.347C1142.84,190.347 1142.84,190.347 1142.84,190.347Z" style="fill:rgb(251,149,59);"/>
        </g>
    </g>
    <defs>
        <linearGradient id="_Linear1" x1="0" y1="0" x2="1" y2="0" gradientUnits="userSpaceOnUse" gradientTransform="matrix(843.586,0,0,281.605,628.311,564.719)"><stop offset="0" style="stop-color:rgb(214,255,254);stop-opacity:1"/><stop offset="1" style="stop-color:rgb(255,219,222);stop-opacity:1"/></linearGradient>
        <linearGradient id="_Linear2" x1="0" y1="0" x2="1" y2="0" gradientUnits="userSpaceOnUse" gradientTransform="matrix(523.06,0,0,368.069,663.478,464.145)"><stop offset="0" style="stop-color:rgb(255,149,177);stop-opacity:1"/><stop offset="1" style="stop-color:rgb(255,190,29);stop-opacity:1"/></linearGradient>
        <linearGradient id="_Linear4" x1="0" y1="0" x2="1" y2="0" gradientUnits="userSpaceOnUse" gradientTransform="matrix(366.797,0,0,411.234,998.017,530.977)"><stop offset="0" style="stop-color:rgb(97,36,36);stop-opacity:1"/><stop offset="1" style="stop-color:black;stop-opacity:1"/></linearGradient>
        <linearGradient id="_Linear5" x1="0" y1="0" x2="1" y2="0" gradientUnits="userSpaceOnUse" gradientTransform="matrix(366.797,0,0,411.234,998.017,530.977)"><stop offset="0" style="stop-color:rgb(97,36,36);stop-opacity:1"/><stop offset="1" style="stop-color:black;stop-opacity:1"/></linearGradient>
        <linearGradient id="_Linear6" x1="0" y1="0" x2="1" y2="0" gradientUnits="userSpaceOnUse" gradientTransform="matrix(358.932,0,0,411.234,744.429,530.977)"><stop offset="0" style="stop-color:rgb(97,36,36);stop-opacity:1"/><stop offset="1" style="stop-color:black;stop-opacity:1"/></linearGradient>
        <linearGradient id="_Linear7" x1="0" y1="0" x2="1" y2="0" gradientUnits="userSpaceOnUse" gradientTransform="matrix(358.932,0,0,411.234,744.429,530.977)"><stop offset="0" style="stop-color:rgb(97,36,36);stop-opacity:1"/><stop offset="1" style="stop-color:black;stop-opacity:1"/></linearGradient>
        <linearGradient id="_Linear8" x1="0" y1="0" x2="1" y2="0" gradientUnits="userSpaceOnUse" gradientTransform="matrix(-58.9412,-182.542,163.648,-52.3668,883.931,212.113)"><stop offset="0" style="stop-color:rgb(222,96,11);stop-opacity:1"/><stop offset="1" style="stop-color:rgb(70,35,11);stop-opacity:1"/></linearGradient>
        <linearGradient id="_Linear10" x1="0" y1="0" x2="1" y2="0" gradientUnits="userSpaceOnUse" gradientTransform="matrix(-8.34189,188.394,-162.522,-7.1318,890.957,19.1589)"><stop offset="0" style="stop-color:rgb(255,105,0);stop-opacity:1"/><stop offset="0.46" style="stop-color:rgb(89,62,53);stop-opacity:1"/><stop offset="1" style="stop-color:rgb(29,0,60);stop-opacity:1"/></linearGradient>
        <linearGradient id="_Linear11" x1="0" y1="0" x2="1" y2="0" gradientUnits="userSpaceOnUse" gradientTransform="matrix(-8.34189,188.394,-162.522,-7.1318,890.957,19.1589)"><stop offset="0" style="stop-color:rgb(255,105,0);stop-opacity:1"/><stop offset="0.46" style="stop-color:rgb(89,62,53);stop-opacity:1"/><stop offset="1" style="stop-color:rgb(29,0,60);stop-opacity:1"/></linearGradient>
        <linearGradient id="_Linear12" x1="0" y1="0" x2="1" y2="0" gradientUnits="userSpaceOnUse" gradientTransform="matrix(-8.34189,188.394,-162.522,-7.1318,890.957,19.1589)"><stop offset="0" style="stop-color:rgb(255,105,0);stop-opacity:1"/><stop offset="0.46" style="stop-color:rgb(89,62,53);stop-opacity:1"/><stop offset="1" style="stop-color:rgb(29,0,60);stop-opacity:1"/></linearGradient>
        <linearGradient id="_Linear13" x1="0" y1="0" x2="1" y2="0" gradientUnits="userSpaceOnUse" gradientTransform="matrix(-8.34189,188.394,-162.522,-7.1318,890.957,19.1589)"><stop offset="0" style="stop-color:rgb(255,105,0);stop-opacity:1"/><stop offset="0.46" style="stop-color:rgb(89,62,53);stop-opacity:1"/><stop offset="1" style="stop-color:rgb(29,0,60);stop-opacity:1"/></linearGradient>
        <linearGradient id="_Linear15" x1="0" y1="0" x2="1" y2="0" gradientUnits="userSpaceOnUse" gradientTransform="matrix(2698.71,0,0,335.553,-80.0455,452.294)"><stop offset="0" style="stop-color:rgb(224,111,65);stop-opacity:1"/><stop offset="1" style="stop-color:rgb(180,86,54);stop-opacity:1"/></linearGradient>
        <linearGradient id="_Linear16" x1="0" y1="0" x2="1" y2="0" gradientUnits="userSpaceOnUse" gradientTransform="matrix(14.9706,0,0,34.3644,954.588,262.36)"><stop offset="0" style="stop-color:rgb(224,111,65);stop-opacity:1"/><stop offset="1" style="stop-color:rgb(180,86,54);stop-opacity:1"/></linearGradient>
        <linearGradient id="_Linear17" x1="0" y1="0" x2="1" y2="0" gradientUnits="userSpaceOnUse" gradientTransform="matrix(2698.71,0,0,335.553,-80.0455,452.294)"><stop offset="0" style="stop-color:rgb(224,111,65);stop-opacity:1"/><stop offset="1" style="stop-color:rgb(180,86,54);stop-opacity:1"/></linearGradient>
        <linearGradient id="_Linear18" x1="0" y1="0" x2="1" y2="0" gradientUnits="userSpaceOnUse" gradientTransform="matrix(601.4,0,0,304.357,650.028,468.632)"><stop offset="0" style="stop-color:rgb(224,111,65);stop-opacity:1"/><stop offset="1" style="stop-color:rgb(180,86,54);stop-opacity:1"/></linearGradient>
        <linearGradient id="_Linear20" x1="0" y1="0" x2="1" y2="0" gradientUnits="userSpaceOnUse" gradientTransform="matrix(57.4394,0,0,19.1001,1026.18,327.657)"><stop offset="0" style="stop-color:rgb(158,7,7);stop-opacity:1"/><stop offset="1" style="stop-color:rgb(191,41,51);stop-opacity:1"/></linearGradient>
        <linearGradient id="_Linear21" x1="0" y1="0" x2="1" y2="0" gradientUnits="userSpaceOnUse" gradientTransform="matrix(101.391,0,0,82.9527,1046.53,198.165)"><stop offset="0" style="stop-color:rgb(255,105,0);stop-opacity:1"/><stop offset="0.46" style="stop-color:rgb(89,62,53);stop-opacity:1"/><stop offset="1" style="stop-color:rgb(29,0,60);stop-opacity:1"/></linearGradient>
        <linearGradient id="_Linear22" x1="0" y1="0" x2="1" y2="0" gradientUnits="userSpaceOnUse" gradientTransform="matrix(101.391,0,0,82.9527,1046.53,198.165)"><stop offset="0" style="stop-color:rgb(255,105,0);stop-opacity:1"/><stop offset="0.46" style="stop-color:rgb(89,62,53);stop-opacity:1"/><stop offset="1" style="stop-color:rgb(29,0,60);stop-opacity:1"/></linearGradient>
    </defs>
</svg>